<svg xmlns="http://www.w3.org/2000/svg" xmlns:xlink="http://www.w3.org/1999/xlink"><symbol id="baloon" viewBox="0 0 18 22">
<path d="M15.364 15.5563L9 22L2.636 15.5563C1.37734 14.2819 0.520187 12.6581 0.172928 10.8905C-0.17433 9.12277 0.00390685 7.29051 0.685099 5.62539C1.36629 3.96027 2.51984 2.53707 3.99988 1.53576C5.47992 0.534448 7.21998 0 9 0C10.78 0 12.5201 0.534448 14.0001 1.53576C15.4802 2.53707 16.6337 3.96027 17.3149 5.62539C17.9961 7.29051 18.1743 9.12277 17.8271 10.8905C17.4798 12.6581 16.6227 14.2819 15.364 15.5563ZM9 11.1377C9.53044 11.1377 10.0391 10.9243 10.4142 10.5445C10.7893 10.1648 11 9.64969 11 9.11262C11 8.57554 10.7893 8.06047 10.4142 7.6807C10.0391 7.30093 9.53044 7.08757 9 7.08757C8.46957 7.08757 7.96086 7.30093 7.58579 7.6807C7.21072 8.06047 7 8.57554 7 9.11262C7 9.64969 7.21072 10.1648 7.58579 10.5445C7.96086 10.9243 8.46957 11.1377 9 11.1377Z"/>
</symbol><symbol id="boat" viewBox="0 0 38 13">
<path d="M35.7879 10.4485L1.42308 6.99263C1.15901 6.96606 0.981029 7.22155 1.11781 7.42503C3.31425 10.6949 8.51389 13 14.5667 13H35.0671C35.2065 13 35.3287 12.9192 35.3699 12.8005L36.0551 10.8125C36.1134 10.6435 35.9849 10.4683 35.7879 10.4485Z" fill="#011C40"/>
<path d="M37.9001 4.78198C37.7994 4.64181 37.6353 4.54855 37.4511 4.52649L27.951 3.39598C27.6084 3.35584 27.286 3.57231 27.2392 3.88152C27.1924 4.19072 27.4368 4.47562 27.7832 4.51682L28.8586 4.6446C29.0157 4.66328 29.1335 4.7831 29.1335 4.92439V5.79829C29.1335 5.96614 28.9701 6.09729 28.7832 6.07921L26.2499 5.83671C26.0891 5.822 25.9669 5.70045 25.9669 5.55631V3.08227C25.9669 3.0263 25.9852 2.97205 26.0201 2.92568L27.1271 1.44365C27.2538 1.27407 27.2684 1.05701 27.1658 0.875578C27.0625 0.693552 26.858 0.574852 26.63 0.565247L13.33 2.65797e-05C13.1165 -0.00169564 12.9094 0.0803087 12.7847 0.236302C12.7847 0.236302 10.2539 3.41069 9.69909 4.10932C9.63259 4.19298 9.52111 4.23762 9.40711 4.22629L0.700479 3.39433C0.520646 3.37737 0.343263 3.42884 0.209669 3.53562C0.0766682 3.64306 0 3.79567 0 3.95617C0 4.50052 0.0791917 5.03408 0.228669 5.55188C0.261622 5.66607 0.373099 5.74914 0.50417 5.76272L36.2857 9.36103C36.437 9.37627 36.5789 9.29321 36.6239 9.16318L37.9723 5.25281C38.0267 5.09403 38.0001 4.92161 37.9001 4.78198ZM18.2768 1.65111L17.7828 4.73846C17.7588 4.88822 17.6099 4.99507 17.4408 4.97983C16.2052 4.86848 11.5628 4.4327 11.5628 4.4327C11.3221 4.40951 11.198 4.16363 11.3386 3.9873L13.5141 1.26904C13.5768 1.19101 13.6794 1.14636 13.7871 1.15093L17.9785 1.32899C18.1647 1.33687 18.3034 1.48604 18.2768 1.65111ZM25.1428 2.06318L24.7533 2.58323C24.7185 2.6296 24.7001 2.68438 24.7001 2.74035V5.37495C24.7001 5.5428 24.5367 5.67396 24.3498 5.65587L19.3237 5.17544C19.1457 5.15848 19.0184 5.01262 19.0437 4.85438L19.556 1.65343C19.5788 1.50929 19.7213 1.40417 19.8848 1.41092L24.8945 1.62402C25.1403 1.63415 25.2796 1.88003 25.1428 2.06318ZM32.9334 6.16174C32.9334 6.32959 32.77 6.46074 32.5832 6.44266C32.5832 6.44266 31.2684 6.31038 30.6794 6.24825C30.5198 6.23189 30.4001 6.11087 30.4001 5.96786V5.15053C30.4001 4.97983 30.5686 4.84755 30.7586 4.87014L32.6586 5.09622C32.8156 5.11543 32.9334 5.23525 32.9334 5.37661V6.16174ZM36.4314 5.87797L36.1964 6.55851C36.1521 6.68742 36.0108 6.77048 35.8601 6.75637L34.4826 6.62469C34.3224 6.60945 34.2001 6.4879 34.2001 6.34377V5.60328C34.2001 5.43258 34.3686 5.3003 34.5586 5.32289L36.1704 5.51452C36.3642 5.5377 36.489 5.71072 36.4314 5.87797Z" fill="#011C40"/>
</symbol><symbol id="check" viewBox="0 0 33 19">
<path d="M24.9701 2.0041L22.9608 0L13.9583 8.98658L15.9675 10.9907L24.9701 2.0041ZM30.9978 0L15.9604 14.9918L10.0392 9.08572L8.02991 11.0898L15.9604 19L33 2.0041L30.9978 0ZM0 11.0898L7.93051 19L9.93976 16.9959L2.00925 9.08572L0 11.0898Z" fill="#011C40"/>
</symbol><symbol id="check_icon" viewBox="0 0 12 8">
<path d="M1 2.5L5.28571 7L11 1"/>
</symbol><symbol id="facebook" viewBox="0 0 9 16">
<path d="M6 9.2H8.14286L9 6H6V4.4C6 3.576 6 2.8 7.71429 2.8H9V0.112C8.72057 0.0776001 7.66543 0 6.55114 0C4.224 0 2.57143 1.3256 2.57143 3.76V6H0V9.2H2.57143V16H6V9.2Z"/>
</symbol><symbol id="icon-close" viewBox="0 0 20 20"><path d="M.293 18.291a1 1 0 101.414 1.414L10 11.413l8.292 8.292a1 1 0 101.414-1.414l-8.292-8.292 8.292-8.292A1 1 0 1018.291.293L9.999 8.585 1.707.293A1 1 0 10.293 1.707L8.585 10 .293 18.291z"/></symbol><symbol id="instagram" viewBox="0 0 16 16">
<path d="M8 0C10.1736 0 10.4448 0.00799995 11.2976 0.048C12.1496 0.088 12.7296 0.2216 13.24 0.42C13.768 0.6232 14.2128 0.8984 14.6576 1.3424C15.0644 1.74232 15.3792 2.22607 15.58 2.76C15.7776 3.2696 15.912 3.8504 15.952 4.7024C15.9896 5.5552 16 5.8264 16 8C16 10.1736 15.992 10.4448 15.952 11.2976C15.912 12.1496 15.7776 12.7296 15.58 13.24C15.3797 13.7742 15.0649 14.2581 14.6576 14.6576C14.2576 15.0643 13.7738 15.379 13.24 15.58C12.7304 15.7776 12.1496 15.912 11.2976 15.952C10.4448 15.9896 10.1736 16 8 16C5.8264 16 5.5552 15.992 4.7024 15.952C3.8504 15.912 3.2704 15.7776 2.76 15.58C2.22586 15.3796 1.74202 15.0648 1.3424 14.6576C0.935525 14.2577 0.620745 13.774 0.42 13.24C0.2216 12.7304 0.088 12.1496 0.048 11.2976C0.0104 10.4448 0 10.1736 0 8C0 5.8264 0.00799995 5.5552 0.048 4.7024C0.088 3.8496 0.2216 3.2704 0.42 2.76C0.620189 2.22574 0.935043 1.74186 1.3424 1.3424C1.74214 0.935385 2.22594 0.620583 2.76 0.42C3.2704 0.2216 3.8496 0.088 4.7024 0.048C5.5552 0.0104 5.8264 0 8 0ZM8 4C6.93913 4 5.92172 4.42143 5.17157 5.17157C4.42143 5.92172 4 6.93913 4 8C4 9.06087 4.42143 10.0783 5.17157 10.8284C5.92172 11.5786 6.93913 12 8 12C9.06087 12 10.0783 11.5786 10.8284 10.8284C11.5786 10.0783 12 9.06087 12 8C12 6.93913 11.5786 5.92172 10.8284 5.17157C10.0783 4.42143 9.06087 4 8 4ZM13.2 3.8C13.2 3.53478 13.0946 3.28043 12.9071 3.09289C12.7196 2.90536 12.4652 2.8 12.2 2.8C11.9348 2.8 11.6804 2.90536 11.4929 3.09289C11.3054 3.28043 11.2 3.53478 11.2 3.8C11.2 4.06522 11.3054 4.31957 11.4929 4.50711C11.6804 4.69464 11.9348 4.8 12.2 4.8C12.4652 4.8 12.7196 4.69464 12.9071 4.50711C13.0946 4.31957 13.2 4.06522 13.2 3.8ZM8 5.6C8.63652 5.6 9.24697 5.85286 9.69706 6.30294C10.1471 6.75303 10.4 7.36348 10.4 8C10.4 8.63652 10.1471 9.24697 9.69706 9.69706C9.24697 10.1471 8.63652 10.4 8 10.4C7.36348 10.4 6.75303 10.1471 6.30294 9.69706C5.85286 9.24697 5.6 8.63652 5.6 8C5.6 7.36348 5.85286 6.75303 6.30294 6.30294C6.75303 5.85286 7.36348 5.6 8 5.6Z"/>
</symbol><symbol id="phone" viewBox="0 0 18 18">
<path d="M18 13.42V16.956C18.0001 17.2092 17.9042 17.453 17.7316 17.6382C17.559 17.8234 17.3226 17.9363 17.07 17.954C16.633 17.984 16.276 18 16 18C7.163 18 0 10.837 0 2C0 1.724 0.015 1.367 0.046 0.93C0.0637224 0.677444 0.176581 0.441011 0.361804 0.268409C0.547026 0.0958068 0.790823 -0.000114433 1.044 2.56579e-07H4.58C4.70404 -0.000125334 4.8237 0.045859 4.91573 0.12902C5.00776 0.212182 5.0656 0.326583 5.078 0.45C5.101 0.68 5.122 0.863 5.142 1.002C5.34073 2.38892 5.748 3.73783 6.35 5.003C6.445 5.203 6.383 5.442 6.203 5.57L4.045 7.112C5.36445 10.1865 7.81455 12.6365 10.889 13.956L12.429 11.802C12.4919 11.714 12.5838 11.6509 12.6885 11.6237C12.7932 11.5964 12.9042 11.6068 13.002 11.653C14.267 12.2539 15.6156 12.6601 17.002 12.858C17.141 12.878 17.324 12.9 17.552 12.922C17.6752 12.9346 17.7894 12.9926 17.8724 13.0846C17.9553 13.1766 18.0012 13.2961 18.001 13.42H18Z"/>
</symbol><symbol id="ship" viewBox="0 0 21 26">
<path d="M3.42649 13.3219L10.2795 8.0728C10.4348 7.96762 10.6331 7.96762 10.7884 8.0728L17.6753 13.3219V7.05914C17.713 6.20035 17.0911 5.47162 16.2864 5.43143C16.2744 5.43081 16.2625 5.43039 16.2505 5.43011H4.85138C4.04591 5.44917 3.4074 6.16134 3.42525 7.0209C3.42551 7.03365 3.4259 7.0464 3.42649 7.05914V13.3219Z" fill="#011C40"/>
<path d="M12.2472 0H8.85464V4.34413H12.2472V0Z" fill="#011C40"/>
<path d="M18.8966 24.5081L21 17.0869L18.0485 14.8786L17.8449 14.7701L10.8901 9.59332V24.8701H10.5169L9.87229 24.8339V9.59332L0 17.0869L2.17127 24.4719L3.42525 25.9922C3.42525 25.9922 4.48187 25.9922 5.56747 25.9922C5.56747 25.9922 9.52521 25.9975 10.517 25.9922C11.5265 26.0097 13.3195 25.9922 13.3195 25.9922H17.7432L18.8966 24.5081Z" fill="#011C40"/>
</symbol><symbol id="twitter" viewBox="0 0 16 13">
<path d="M15.9992 1.54324C15.4 1.80812 14.7645 1.98209 14.1138 2.05937C14.7996 1.64947 15.313 1.00438 15.5581 0.244297C14.9144 0.627078 14.2088 0.895338 13.4733 1.04045C12.9793 0.512227 12.3245 0.161908 11.6106 0.0439529C10.8968 -0.0740019 10.164 0.047017 9.52611 0.388195C8.88822 0.729374 8.38099 1.2716 8.08329 1.93057C7.78559 2.58954 7.71409 3.32833 7.87991 4.0321C6.57465 3.96673 5.29775 3.62777 4.13209 3.03724C2.96644 2.4467 1.93809 1.6178 1.11381 0.604331C0.822049 1.10512 0.668725 1.67441 0.669545 2.2539C0.669545 3.39126 1.24882 4.39606 2.12951 4.98435C1.60833 4.96795 1.09861 4.8273 0.642857 4.57411V4.6149C0.643014 5.37238 0.905313 6.1065 1.38528 6.69279C1.86525 7.27907 2.53335 7.68144 3.27629 7.83167C2.79248 7.96269 2.28517 7.98201 1.79278 7.88815C2.00225 8.54016 2.41052 9.11038 2.96043 9.51897C3.51034 9.92757 4.17436 10.1541 4.8595 10.1668C4.17856 10.7012 3.39888 11.0963 2.56506 11.3294C1.73123 11.5625 0.859598 11.6291 0 11.5253C1.50055 12.4897 3.24733 13.0017 5.0314 13C11.0699 13 14.3721 8.0011 14.3721 3.66579C14.3721 3.5246 14.3681 3.38184 14.3619 3.24222C15.0046 2.778 15.5593 2.20293 16 1.54403L15.9992 1.54324Z"/>
</symbol></svg>